<svg width="512" height="512" viewBox="0 0 512 512" xmlns="http://www.w3.org/2000/svg">
  <!-- Clean white background with subtle border -->
  <rect width="512" height="512" fill="#FFFFFF"/>
  <rect x="16" y="16" width="480" height="480" fill="none" stroke="#000000" stroke-width="2" rx="24"/>
  
  <!-- Main "P" letterform - bold and geometric -->
  <path d="M 120 120 L 120 392 L 200 392 L 280 392 L 320 352 L 320 280 L 280 240 L 200 240 L 200 120 Z" fill="#000000"/>
  
  <!-- Open door/window in the P - represents openness and sharing -->
  <rect x="200" y="160" width="80" height="80" fill="none" stroke="#FFFFFF" stroke-width="8" stroke-linecap="round"/>
  
  <!-- Connection dots radiating from the P - represents community -->
  <circle cx="360" cy="160" r="6" fill="#000000"/>
  <circle cx="360" cy="200" r="6" fill="#000000"/>
  <circle cx="360" cy="240" r="6" fill="#000000"/>
  <circle cx="360" cy="280" r="6" fill="#000000"/>
  <circle cx="360" cy="320" r="6" fill="#000000"/>
  
  <!-- Connection lines from P to dots -->
  <line x1="320" y1="160" x2="354" y2="160" stroke="#000000" stroke-width="3" stroke-linecap="round"/>
  <line x1="320" y1="200" x2="354" y2="200" stroke="#000000" stroke-width="3" stroke-linecap="round"/>
  <line x1="320" y1="240" x2="354" y2="240" stroke="#000000" stroke-width="3" stroke-linecap="round"/>
  <line x1="320" y1="280" x2="354" y2="280" stroke="#000000" stroke-width="3" stroke-linecap="round"/>
  <line x1="320" y1="320" x2="354" y2="320" stroke="#000000" stroke-width="3" stroke-linecap="round"/>
</svg> 